# xmcd
#
# Track frame offsets:
# 150
# 19200
# 34800
# 54825
# 73200
# 88200
# 99675
# 113700
# 141600
# 156375
# 170475
#
# Disc length: 2669 seconds
#
# Revision: 2
# Processed by: cddbd v1.4PL0 Copyright (c) Steve Scherf et al.
# Submitted via: Axialis_AX_CDPlayer 2.6
#
DISCID=9f0a6b0b
DTITLE=Richard Abel - Instrumental Memories Vol. 2
DYEAR=1900
DGENRE=
TTITLE0=Le Temps Qu'il Nous Reste
TTITLE1=Dr. Zhivago - Lara's Theme
TTITLE2=Sérénade De Schubert - Shubert's Serenade
TTITLE3=Les Oiseaux Se Cachent Pour Mourir - The Thorn Birds
TTITLE4=Marina
TTITLE5=The Entertainer
TTITLE6=Spanish Eyes
TTITLE7=Pot-Pourri - Medley 
TTITLE8=Lac De Côme - Lake Como
TTITLE9=La Paloma
TTITLE10=Le Danube Bleu - Blue Danube
EXTD=
EXTT0=
EXTT1=
EXTT2=
EXTT3=
EXTT4=
EXTT5=
EXTT6=
EXTT7=Je suis seul ce soir, Blue Moon, Peg of my Heart...
EXTT8=
EXTT9=
EXTT10=
PLAYORDER=
